<svg xmlns="http://www.w3.org/2000/svg" viewBox="0 0 128 128" role="img" aria-labelledby="title">
  <title id="title">PUC Minas</title>
  <defs>
    <linearGradient id="bg" x1="0" x2="1" y1="0" y2="1">
      <stop offset="0" stop-color="#7fd7ff"/>
      <stop offset="0.45" stop-color="#007d95"/>
      <stop offset="1" stop-color="#004b70"/>
    </linearGradient>
  </defs>
  <rect width="128" height="128" rx="12" fill="url(#bg)"/>
  <g fill="none" stroke="#f8f8f2" stroke-linecap="round" stroke-linejoin="round" stroke-width="3">
    <path d="M64 19v13"/>
    <path d="M58 25h12"/>
    <path d="M39 48h50"/>
    <path d="M45 48c0-15 38-15 38 0"/>
    <path d="M50 48v16c0 15 28 15 28 0V48"/>
    <path d="M44 65h40"/>
    <path d="M35 42 22 29"/>
    <path d="M93 42l13-13"/>
    <path d="M29 35l-8 8"/>
    <path d="M99 35l8 8"/>
    <path d="M49 80h30"/>
    <path d="M42 89h44"/>
  </g>
  <text x="64" y="109" fill="#f8f8f2" font-family="Arial, sans-serif" font-size="20" font-weight="700" text-anchor="middle">PUC Minas</text>
</svg>
